<svg width="24" height="24" viewBox="0 0 24 24" fill="none" xmlns="http://www.w3.org/2000/svg">
<path fill-rule="evenodd" clip-rule="evenodd" d="M20.8337 15.3874H12.0171C13.0175 15.2983 13.9451 14.8272 14.6072 14.072C15.2693 13.3168 15.6149 12.3355 15.5723 11.3321C15.5297 10.3286 15.1022 9.38019 14.3785 8.68378C13.6548 7.98738 12.6906 7.59658 11.6863 7.59257H8.80628C9.23686 7.01361 9.54482 6.35291 9.71134 5.65087C9.87786 4.94883 9.89945 4.22021 9.77477 3.50954C9.65009 2.79888 9.38178 2.12111 8.98623 1.51767C8.59069 0.914241 8.07622 0.397825 7.47429 0L20.8337 0C21.4469 0.000908434 22.0347 0.245135 22.4679 0.67905C22.9012 1.11296 23.1446 1.70109 23.1446 2.31429V13.0783C23.1446 14.3537 22.1091 15.3891 20.8337 15.3891V15.3874ZM4.54114 7.596C4.96326 7.60582 5.38308 7.53116 5.77593 7.37641C6.16878 7.22166 6.52673 6.98994 6.82874 6.69487C7.13075 6.39981 7.37074 6.04734 7.53458 5.6582C7.69843 5.26906 7.78283 4.85109 7.78283 4.42886C7.78283 4.00663 7.69843 3.58866 7.53458 3.19952C7.37074 2.81037 7.13075 2.45791 6.82874 2.16284C6.52673 1.86777 6.16878 1.63605 5.77593 1.4813C5.38308 1.32655 4.96326 1.25189 4.54114 1.26171C3.71392 1.28096 2.92706 1.62309 2.34881 2.21495C1.77057 2.80681 1.44683 3.60141 1.44683 4.42886C1.44683 5.2563 1.77057 6.05091 2.34881 6.64277C2.92706 7.23462 3.71392 7.57675 4.54114 7.596ZM13.4469 11.4977C13.4469 10.524 12.6583 9.73543 11.6863 9.73543H4.54286C3.33802 9.73543 2.18252 10.214 1.33057 11.066C0.478621 11.918 0 13.0734 0 14.2783V16.344C0 17.256 0.740571 17.9949 1.65257 17.9949H1.94743L2.43086 22.4691C2.47607 22.8892 2.67483 23.2778 2.989 23.5604C3.30317 23.8429 3.71062 23.9995 4.13314 24H4.99371C5.40726 23.9998 5.8068 23.8502 6.11869 23.5786C6.43058 23.307 6.63379 22.9319 6.69086 22.5223L7.98171 13.2583H11.6846C12.6566 13.2583 13.4451 12.4697 13.4451 11.4977H13.4469Z" fill="#8B8888"/>
</svg>
