<svg width="18" height="20" viewBox="0 0 18 20" fill="none" xmlns="http://www.w3.org/2000/svg">
<path fill-rule="evenodd" clip-rule="evenodd" d="M13.95 2.34706C14.1322 2.15845 14.233 1.90585 14.2307 1.64365C14.2284 1.38146 14.1232 1.13065 13.9378 0.945237C13.7524 0.759829 13.5016 0.65466 13.2394 0.652382C12.9772 0.650103 12.7246 0.750897 12.536 0.933056L8.646 4.82206C8.55224 4.91579 8.42508 4.96845 8.2925 4.96845C8.15992 4.96845 8.03276 4.91579 7.939 4.82206L5.464 2.34706C5.37175 2.25155 5.26141 2.17536 5.1394 2.12295C5.0174 2.07055 4.88618 2.04296 4.7534 2.04181C4.62062 2.04065 4.48894 2.06595 4.36605 2.11623C4.24315 2.16651 4.1315 2.24077 4.0376 2.33466C3.94371 2.42855 3.86946 2.54021 3.81918 2.6631C3.7689 2.786 3.7436 2.91768 3.74475 3.05046C3.7459 3.18324 3.77349 3.31446 3.8259 3.43646C3.87831 3.55846 3.95449 3.66881 4.05 3.76106L5.636 5.34706H2C1.46957 5.34706 0.960859 5.55777 0.585786 5.93284C0.210714 6.30791 0 6.81662 0 7.34706V17.3471C0 17.8775 0.210714 18.3862 0.585786 18.7613C0.960859 19.1363 1.46957 19.3471 2 19.3471H16C16.5304 19.3471 17.0391 19.1363 17.4142 18.7613C17.7893 18.3862 18 17.8775 18 17.3471V7.34706C18 6.81662 17.7893 6.30791 17.4142 5.93284C17.0391 5.55777 16.5304 5.34706 16 5.34706H10.95L13.95 2.34706ZM6.463 10.2671C6.48106 10.1042 6.53718 9.94782 6.62682 9.81062C6.71646 9.67343 6.83711 9.55924 6.97903 9.47728C7.12095 9.39532 7.28015 9.34789 7.44379 9.33882C7.60742 9.32975 7.77089 9.35929 7.921 9.42506C8.276 9.57906 8.949 9.89206 9.789 10.3771C10.629 10.8621 11.238 11.2891 11.549 11.5191C11.6809 11.6162 11.7881 11.7429 11.862 11.8891C11.9359 12.0353 11.9744 12.1968 11.9744 12.3606C11.9744 12.5243 11.9359 12.6858 11.862 12.832C11.7881 12.9782 11.6809 13.1049 11.549 13.2021C11.239 13.4311 10.635 13.8541 9.789 14.3421C8.942 14.8321 8.274 15.1421 7.921 15.2961C7.77089 15.3618 7.60742 15.3914 7.44379 15.3823C7.28015 15.3732 7.12095 15.3258 6.97903 15.2438C6.83711 15.1619 6.71646 15.0477 6.62682 14.9105C6.53718 14.7733 6.48106 14.6169 6.463 14.4541C6.38815 13.7586 6.35176 13.0595 6.354 12.3601C6.354 11.3941 6.42 10.6521 6.464 10.2681" fill="#8B8888"/>
</svg>
