<svg width="18" height="20" viewBox="0 0 18 20" fill="none" xmlns="http://www.w3.org/2000/svg">
<path d="M2 20C1.45 20 0.979333 19.8043 0.588 19.413C0.196667 19.0217 0.000666667 18.5507 0 18V4C0 3.45 0.196 2.97933 0.588 2.588C0.98 2.19667 1.45067 2.00067 2 2H6.2C6.41667 1.4 6.77933 0.916667 7.288 0.55C7.79667 0.183333 8.36733 0 9 0C9.63267 0 10.2037 0.183333 10.713 0.55C11.2223 0.916667 11.5847 1.4 11.8 2H16C16.55 2 17.021 2.196 17.413 2.588C17.805 2.98 18.0007 3.45067 18 4V18C18 18.55 17.8043 19.021 17.413 19.413C17.0217 19.805 16.5507 20.0007 16 20H2ZM5 16H10C10.2833 16 10.521 15.904 10.713 15.712C10.905 15.52 11.0007 15.2827 11 15C10.9993 14.7173 10.9033 14.48 10.712 14.288C10.5207 14.096 10.2833 14 10 14H5C4.71667 14 4.47933 14.096 4.288 14.288C4.09667 14.48 4.00067 14.7173 4 15C3.99933 15.2827 4.09533 15.5203 4.288 15.713C4.48067 15.9057 4.718 16.0013 5 16ZM5 12H13C13.2833 12 13.521 11.904 13.713 11.712C13.905 11.52 14.0007 11.2827 14 11C13.9993 10.7173 13.9033 10.48 13.712 10.288C13.5207 10.096 13.2833 10 13 10H5C4.71667 10 4.47933 10.096 4.288 10.288C4.09667 10.48 4.00067 10.7173 4 11C3.99933 11.2827 4.09533 11.5203 4.288 11.713C4.48067 11.9057 4.718 12.0013 5 12ZM5 8H13C13.2833 8 13.521 7.904 13.713 7.712C13.905 7.52 14.0007 7.28267 14 7C13.9993 6.71733 13.9033 6.48 13.712 6.288C13.5207 6.096 13.2833 6 13 6H5C4.71667 6 4.47933 6.096 4.288 6.288C4.09667 6.48 4.00067 6.71733 4 7C3.99933 7.28267 4.09533 7.52033 4.288 7.713C4.48067 7.90567 4.718 8.00133 5 8ZM9 3.25C9.21667 3.25 9.396 3.179 9.538 3.037C9.68 2.895 9.75067 2.716 9.75 2.5C9.74933 2.284 9.67833 2.105 9.537 1.963C9.39567 1.821 9.21667 1.75 9 1.75C8.78333 1.75 8.60433 1.821 8.463 1.963C8.32167 2.105 8.25067 2.284 8.25 2.5C8.24933 2.716 8.32033 2.89533 8.463 3.038C8.60567 3.18067 8.78467 3.25133 9 3.25Z" fill="#8B8888"/>
</svg>
